<?xml version="1.0" encoding="UTF-8"?>
<svg id="Layer_1" data-name="Layer 1" xmlns="http://www.w3.org/2000/svg" viewBox="0 0 155.92 103.27">
  <defs>
    <style>
      .cls-1 {
        fill: #3c2415;
      }

      .cls-2 {
        fill: #fbb040;
      }
    </style>
  </defs>
  <g>
    <path class="cls-1" d="M31.58,40.73c-4.24,4.39-9.36,6.58-15.36,6.58-4.3,0-7.82-1.35-10.57-4.04-2.75-2.69-4.12-6.15-4.12-10.38s.99-8.21,2.98-12c1.99-3.8,4.59-6.83,7.8-9.1,3.21-2.27,6.37-3.41,9.47-3.41,2.6,0,4.71.78,6.35,2.34,1.64,1.56,2.46,3.58,2.46,6.07,0,3.24-.99,6.05-2.97,8.42-1.98,2.37-4.29,3.56-6.94,3.56-1.4,0-2.54-.36-3.44-1.07-.9-.72-1.34-1.64-1.34-2.77,0-.97.38-1.86,1.15-2.69.57,1.06,1.36,1.58,2.36,1.58,1.43,0,2.76-.9,3.99-2.69,1.23-1.79,1.84-3.75,1.84-5.88,0-1.49-.34-2.67-1.03-3.54-.69-.88-1.61-1.32-2.75-1.32-1.67,0-3.44,1.04-5.33,3.12-1.89,2.08-3.46,4.74-4.73,8-1.26,3.26-1.89,6.36-1.89,9.29,0,3.74,1.06,6.81,3.18,9.21,2.12,2.4,4.82,3.6,8.1,3.6,2.08,0,3.95-.48,5.61-1.44,1.67-.96,3.39-2.47,5.18-4.52v3.09Z"/>
    <path class="cls-1" d="M49.33,40.7c-2.44,2.24-4.57,3.89-6.41,4.95-1.83,1.07-3.58,1.6-5.25,1.6-1.92,0-3.46-.74-4.63-2.23-1.17-1.49-1.76-3.48-1.76-5.99,0-3.76.81-8.27,2.44-13.54,1.63-5.26,3.61-10.12,5.94-14.56l6.82-2.52c.21-.07.38-.11.48-.11.52,0,.94.38,1.28,1.14.33.76.5,1.79.5,3.08,0,3.65-.84,7.19-2.52,10.61-1.68,3.42-4.31,7.07-7.9,10.96-.14,1.86-.21,3.14-.21,3.84,0,1.56.29,2.79.86,3.71.57.91,1.33,1.37,2.28,1.37s2-.35,3.09-1.05c1.09-.7,2.76-2.15,5-4.35v3.09ZM39.05,30.2c2.27-2.53,4.12-5.36,5.53-8.5,1.41-3.14,2.12-5.84,2.12-8.09,0-.66-.1-1.2-.3-1.6-.2-.4-.45-.6-.75-.6-.66,0-1.62,1.65-2.89,4.95-1.26,3.3-2.5,7.92-3.72,13.85Z"/>
    <path class="cls-1" d="M78.02,40.7c-2.86,2.72-4.91,4.49-6.15,5.32s-2.42,1.24-3.54,1.24c-2.83,0-4.16-2.5-4-7.49-1.79,2.56-3.44,4.45-4.96,5.67-1.51,1.22-3.07,1.83-4.69,1.83s-2.91-.74-4.02-2.22c-1.1-1.48-1.65-3.29-1.65-5.44,0-2.69.74-5.25,2.22-7.68,1.48-2.43,3.37-4.4,5.68-5.91s4.35-2.26,6.12-2.26c2.24,0,3.8,1.03,4.7,3.09l5.49-3.03h1.51l-2.37,7.87c-1.22,3.96-1.83,6.67-1.83,8.14s.55,2.31,1.64,2.31c.7,0,1.47-.37,2.31-1.11.84-.74,2.02-1.88,3.54-3.4v3.09ZM58.36,42.18c1.79,0,3.48-1.53,5.06-4.58,1.58-3.05,2.38-5.87,2.38-8.45,0-1-.22-1.79-.67-2.35-.45-.56-1.05-.85-1.8-.85-1.79,0-3.49,1.52-5.09,4.57-1.6,3.04-2.4,5.85-2.4,8.41,0,.97.24,1.75.71,2.35.47.6,1.08.9,1.81.9Z"/>
    <path class="cls-1" d="M86.26,24.97c1.23-.32,2.48-.59,3.73-.79,1.25-.21,2.01-.31,2.26-.31.18,0,.27.07.27.21,0,.27-.07.55-.21.83-.29.82-.43,1.61-.43,2.36,0,.93.54,2.2,1.62,3.81,1.07,1.61,1.61,3.11,1.61,4.49,0,2.74-1.31,5.38-3.93,7.92-2.62,2.54-5.34,3.81-8.15,3.81-1.22,0-2.33-.32-3.33-.97s-1.5-1.33-1.5-2.07c0-.43.5-1.24,1.49-2.44.99-1.2,1.71-1.8,2.14-1.8.57,0,1.08.73,1.53,2.2.45,1.47,1.22,2.2,2.31,2.2s2.12-.51,3.08-1.52c.96-1.01,1.44-2.1,1.44-3.26,0-1.13-.61-2.63-1.82-4.51-1.22-1.88-2.02-3.45-2.42-4.73-2.08,3.35-4.71,6.78-7.9,10.29h-.62v-2.42c4.39-4.67,7.34-9.11,8.86-13.32Z"/>
    <path class="cls-1" d="M108.58,24.97c1.24-.32,2.48-.59,3.73-.79,1.25-.21,2-.31,2.26-.31.18,0,.27.07.27.21,0,.27-.07.55-.21.83-.29.82-.43,1.61-.43,2.36,0,.93.54,2.2,1.61,3.81,1.07,1.61,1.61,3.11,1.61,4.49,0,2.74-1.31,5.38-3.93,7.92-2.62,2.54-5.34,3.81-8.15,3.81-1.22,0-2.33-.32-3.33-.97-1-.64-1.5-1.33-1.5-2.07,0-.43.5-1.24,1.49-2.44.99-1.2,1.71-1.8,2.13-1.8.57,0,1.08.73,1.53,2.2.45,1.47,1.22,2.2,2.31,2.2s2.12-.51,3.08-1.52c.96-1.01,1.44-2.1,1.44-3.26,0-1.13-.61-2.63-1.83-4.51s-2.02-3.45-2.42-4.73c-2.08,3.35-4.71,6.78-7.9,10.29h-.62v-2.42c4.39-4.67,7.34-9.11,8.86-13.32Z"/>
    <path class="cls-1" d="M135.84,40.7c-4.19,4.4-7.32,6.61-9.4,6.61-1.15,0-2.11-.59-2.9-1.76-.79-1.17-1.18-2.65-1.18-4.42,0-3.81,1.29-9.09,3.87-15.84l6.82-1.42h.32l-2.69,8.41c-1.11,3.47-1.67,5.95-1.67,7.44,0,.59.13,1.07.39,1.44.26.37.59.55.98.55.7,0,1.4-.25,2.11-.77.71-.51,1.82-1.62,3.34-3.32v3.09ZM135.3,13.37c0,4.3-1.58,6.45-4.75,6.45-1.54,0-2.86-.47-3.95-1.4,1.04-1.58,1.84-3.35,2.42-5.32,1.41.88,2.55,1.32,3.41,1.32.97,0,1.92-.35,2.87-1.05Z"/>
    <path class="cls-1" d="M155.92,40.7c-2.29,2.26-4.39,3.91-6.3,4.97-1.91,1.06-3.9,1.58-5.97,1.58-2.33,0-4.25-.76-5.76-2.27-1.51-1.51-2.27-3.43-2.27-5.76,0-3.81,1.39-7.34,4.18-10.57,2.78-3.23,5.8-4.85,9.04-4.85,1.59,0,2.89.44,3.89,1.33,1,.89,1.5,2.04,1.5,3.45,0,.5-.09.88-.28,1.13-.19.25-.54.5-1.06.75l-3.12,1.48c-.38.18-.65.27-.83.27-.25,0-.38-.18-.38-.54,0-.14.05-.61.16-1.41.11-.8.16-1.28.16-1.46,0-.79-.17-1.42-.5-1.91s-.77-.73-1.33-.73c-1.31,0-2.5.97-3.58,2.9-1.08,1.93-1.62,4.14-1.62,6.61,0,2.13.51,3.83,1.53,5.1,1.02,1.27,2.38,1.91,4.08,1.91,1.45,0,2.82-.42,4.1-1.25,1.28-.83,2.74-2.11,4.36-3.83v3.09Z"/>
  </g>
  <g>
    <path class="cls-2" d="M62.06,78.24c-5.01,5.18-11.07,7.78-18.15,7.78-5.08,0-9.24-1.59-12.49-4.78-3.25-3.18-4.87-7.27-4.87-12.27s1.17-9.7,3.52-14.19,5.42-8.07,9.22-10.76c3.8-2.69,7.53-4.03,11.19-4.03,3.07,0,5.57.92,7.51,2.76,1.94,1.84,2.9,4.23,2.9,7.17,0,3.83-1.17,7.15-3.51,9.95s-5.07,4.21-8.2,4.21c-1.65,0-3-.42-4.06-1.27-1.06-.85-1.59-1.94-1.59-3.27,0-1.14.45-2.2,1.36-3.17.68,1.25,1.61,1.87,2.79,1.87,1.69,0,3.26-1.06,4.71-3.17,1.45-2.12,2.17-4.43,2.17-6.95,0-1.76-.41-3.15-1.22-4.19-.81-1.04-1.9-1.56-3.25-1.56-1.97,0-4.07,1.23-6.3,3.68-2.23,2.45-4.09,5.61-5.59,9.46-1.49,3.85-2.24,7.51-2.24,10.98,0,4.42,1.25,8.05,3.76,10.89,2.51,2.83,5.7,4.25,9.57,4.25,2.45,0,4.67-.57,6.63-1.71s4.01-2.92,6.13-5.34v3.65Z"/>
    <path class="cls-2" d="M95.93,78.21c-2.79,2.64-5.13,4.6-7.01,5.86s-3.58,1.89-5.08,1.89c-1.67,0-2.96-.67-3.86-2-.9-1.33-1.35-3.14-1.35-5.43-2.33,2.56-4.41,4.45-6.25,5.67s-3.64,1.83-5.4,1.83c-1.61,0-2.9-.67-3.87-2-.97-1.33-1.46-3.14-1.46-5.43,0-4.4,1.48-10.6,4.44-18.6l8.48-1.69c-3.49,10.14-5.23,16.65-5.24,19.53,0,2.03.76,3.04,2.29,3.04,1.1,0,2.46-.89,4.09-2.68,1.63-1.79,2.64-3.35,3.05-4.68l4.16-13.52,8.64-1.75c-1.99,6.37-3.36,10.84-4.1,13.42-.74,2.58-1.11,4.39-1.11,5.43,0,1.99.68,2.98,2.03,2.98,1.1,0,2.73-1,4.89-3.01l2.67-2.51v3.65Z"/>
    <path class="cls-2" d="M114.18,78.21c-2.67,2.64-4.97,4.6-6.92,5.86-1.95,1.26-3.8,1.89-5.55,1.89s-3.3-.77-4.43-2.3c-1.13-1.53-1.7-3.55-1.7-6.05,0-2.2.54-5.11,1.63-8.72l1.35-4.8-2.44.13,1.02-4.98,3.02-.13,2.98-9.9,8.48-1.74-3.28,11.04,4.48-.25-1.05,4.89-4.92.38-2.11,7.11c-.74,2.47-1.1,4.44-1.1,5.9,0,1,.25,1.8.75,2.43s1.14.94,1.92.94c1.08,0,2.15-.34,3.21-1.03s2.62-2.12,4.67-4.3v3.65Z"/>
    <path class="cls-2" d="M123.92,59.61c1.46-.38,2.93-.69,4.41-.94,1.48-.24,2.37-.37,2.67-.37.21,0,.32.08.32.25,0,.32-.08.64-.25.98-.34.97-.51,1.9-.51,2.79,0,1.1.64,2.6,1.91,4.51s1.9,3.67,1.9,5.3c0,3.24-1.55,6.36-4.65,9.36s-6.31,4.51-9.63,4.51c-1.44,0-2.75-.38-3.94-1.14-1.18-.76-1.78-1.58-1.78-2.44,0-.51.59-1.47,1.76-2.89,1.17-1.42,2.02-2.13,2.52-2.13.68,0,1.28.87,1.81,2.6.53,1.74,1.44,2.6,2.73,2.6s2.5-.6,3.63-1.79c1.13-1.2,1.7-2.48,1.7-3.86,0-1.33-.72-3.11-2.16-5.33-1.44-2.22-2.39-4.08-2.86-5.59-2.45,3.96-5.56,8.01-9.33,12.16h-.73v-2.86c5.18-5.52,8.67-10.77,10.47-15.74Z"/>
  </g>
  <g>
    <path class="cls-1" d="M12.03,99.84c-.21,0-.33.01-.36.01-.16,0-.44,0-.85-.02-.41-.01-1.26-.02-2.56-.02h-1.61c-.06,0-.28.01-.65.03-.37.02-.6.03-.68.03-.32,0-.48-.04-.48-.13,0-.07.06-.1.19-.11.41-.03.7-.11.86-.26s.27-.37.33-.65.09-1.04.09-2.28v-2.27c0-.74-.03-1.25-.09-1.54-.07-.29-.2-.52-.41-.67-.21-.15-.44-.24-.7-.26-.14-.01-.2-.06-.2-.14s.06-.12.18-.12c.03,0,.08,0,.17,0,.67.04,1.46.06,2.36.06l1.12-.02c.11,0,.17.04.17.13,0,.08-.06.12-.18.12-.3,0-.55.06-.75.18-.2.12-.33.25-.4.41-.07.15-.1.46-.1.9l-.05,3v1.68c.01.52.04.86.08,1.02.04.16.14.3.28.42s.39.19.76.19c.03,0,.41-.01,1.14-.04.58-.08,1.1-.36,1.56-.85.46-.49.77-.92.92-1.31.05-.11.1-.16.17-.16.07,0,.11.05.11.15,0,.12-.06.54-.18,1.27-.12.73-.2,1.15-.23,1.25Z"/>
    <path class="cls-1" d="M16.73,91.33h.29c.47.97,1.12,2.63,1.96,4.97.54,1.5.9,2.42,1.1,2.76s.52.53.96.57c.14.01.21.06.21.14,0,.06-.04.09-.11.09h-.09c-.39-.04-.88-.06-1.49-.06-.92,0-1.52.01-1.78.04-.13,0-.2-.04-.2-.12,0-.05.05-.09.15-.1.36-.03.61-.09.75-.18.14-.09.21-.23.21-.42s-.13-.64-.39-1.36l-.37-1.09c-.22,0-1.2.01-2.95.04-.44,1.17-.66,1.91-.66,2.22,0,.26.11.45.33.58.22.12.43.19.64.21.16.01.23.06.23.14,0,.03-.03.06-.08.09-.68-.03-1.09-.04-1.23-.04-.71,0-1.19,0-1.43.03-.14,0-.2-.04-.2-.11,0-.07.06-.11.18-.13.49-.06.86-.39,1.12-.99s.66-1.67,1.21-3.22c.5-1.41,1.05-2.76,1.64-4.05ZM16.48,92.72c-.39.8-.85,1.97-1.38,3.5.44-.02.75-.03.94-.03l1.78.03c-.16-.44-.38-1.02-.66-1.75-.35-.87-.57-1.45-.68-1.75Z"/>
    <path class="cls-1" d="M24.75,99.96h-.19c-.2-.44-.44-.98-.71-1.63-.27-.65-.72-1.69-1.36-3.14-.64-1.45-1.05-2.31-1.25-2.59-.19-.28-.37-.48-.54-.58-.17-.11-.31-.17-.44-.18-.13-.01-.2-.05-.2-.12,0-.08.16-.12.48-.12h2.77c.26,0,.39.04.39.12s-.06.11-.19.12c-.55.03-.82.25-.82.64,0,.09.02.21.07.36.05.15.35.9.91,2.25.56,1.35,1,2.38,1.33,3.08.13-.33.41-1.12.84-2.37.43-1.26.68-2.04.77-2.37-.3-.82-.53-1.28-.67-1.38-.14-.1-.33-.17-.58-.2-.17-.02-.26-.06-.26-.13,0-.08.15-.13.46-.13h2.72c.17,0,.27,0,.31.02s.06.05.06.11-.11.11-.32.15c-.46.07-.69.3-.69.67,0,.59.67,2.44,2.01,5.55.27-.68.53-1.38.78-2.11l.68-1.93c.2-.57.31-.92.34-1.06s.04-.27.04-.39c0-.51-.27-.77-.8-.78-.12,0-.18-.04-.18-.12,0-.05.02-.08.06-.1.04-.01.15-.02.32-.02h1.54c.46,0,.72,0,.79.01.06,0,.1.05.1.12,0,.06-.05.1-.15.1-.46.03-.83.29-1.09.76-.26.47-.85,2.04-1.78,4.7-.49,1.4-.81,2.29-.98,2.67h-.18c-.34-.93-.68-1.78-1-2.55-.32-.77-.78-1.91-1.37-3.4l-2.04,5.96Z"/>
    <path class="cls-1" d="M35.7,91.54c.25.34.69.87,1.32,1.59l2.03,2.36,1.96,2.26c.04-.77.06-1.76.06-2.98,0-.92-.02-1.53-.06-1.84-.04-.31-.18-.57-.42-.78s-.55-.32-.91-.32c-.17,0-.25-.04-.25-.11,0-.04.02-.07.05-.09.04-.02.32-.04.85-.06.53-.02.98-.03,1.35-.03h.86s.14,0,.14,0c.13,0,.2.04.2.11,0,.07-.06.1-.17.12-.43.05-.74.16-.92.33s-.3.43-.34.76-.05,1.44-.05,3.33l-.06,3.35c0,.17-.04.25-.12.25-.02,0-.05,0-.09-.03-.04-.02-.23-.23-.57-.64s-.76-.9-1.27-1.47c-.5-.57-.9-1.04-1.18-1.39-.63-.77-1.03-1.24-1.19-1.42-.61-.65-.98-1.07-1.09-1.26-.07-.13-.14-.19-.2-.19-.05,0-.07.08-.07.25v.98c.01,1.25.05,2.24.11,2.99.07.75.14,1.18.21,1.31s.2.26.39.39c.18.13.38.2.59.2.28,0,.42.05.42.15,0,.08-.08.12-.24.12h-3.05c-.14,0-.22-.04-.22-.12,0-.08.07-.13.21-.13.52,0,.87-.12,1.04-.35.17-.23.26-.72.26-1.47l-.05-2.23c0-1.32-.03-2.09-.11-2.33-.07-.24-.23-.52-.49-.86-.25-.34-.54-.53-.86-.57-.14-.02-.22-.05-.22-.11,0-.08.09-.12.28-.12h1.87Z"/>
    <path class="cls-1" d="M50.55,91.33h.29c.47.97,1.12,2.63,1.96,4.97.54,1.5.9,2.42,1.1,2.76.2.34.52.53.96.57.14.01.21.06.21.14,0,.06-.04.09-.11.09h-.09c-.39-.04-.88-.06-1.49-.06-.92,0-1.51.01-1.78.04-.13,0-.2-.04-.2-.12,0-.05.05-.09.15-.1.36-.03.61-.09.75-.18s.21-.23.21-.42-.13-.64-.39-1.36l-.37-1.09c-.22,0-1.2.01-2.95.04-.44,1.17-.66,1.91-.66,2.22,0,.26.11.45.33.58.22.12.43.19.64.21.16.01.23.06.23.14,0,.03-.03.06-.08.09-.68-.03-1.08-.04-1.22-.04-.71,0-1.19,0-1.43.03-.14,0-.2-.04-.2-.11,0-.07.06-.11.18-.13.49-.06.86-.39,1.12-.99s.66-1.67,1.21-3.22c.5-1.41,1.05-2.76,1.64-4.05ZM50.3,92.72c-.39.8-.85,1.97-1.38,3.5.44-.02.75-.03.94-.03l1.78.03c-.16-.44-.38-1.02-.66-1.75-.35-.87-.57-1.45-.68-1.75Z"/>
    <path class="cls-1" d="M57.64,91.54c.25.34.69.87,1.32,1.59l2.03,2.36,1.96,2.26c.04-.77.06-1.76.06-2.98,0-.92-.02-1.53-.06-1.84-.04-.31-.18-.57-.42-.78s-.55-.32-.91-.32c-.17,0-.25-.04-.25-.11,0-.04.02-.07.05-.09.04-.02.32-.04.85-.06.53-.02.98-.03,1.35-.03h.86s.14,0,.14,0c.13,0,.2.04.2.11,0,.07-.06.1-.17.12-.43.05-.74.16-.92.33s-.3.43-.34.76-.05,1.44-.05,3.33l-.06,3.35c0,.17-.04.25-.12.25-.02,0-.05,0-.09-.03-.04-.02-.23-.23-.57-.64s-.76-.9-1.27-1.47c-.5-.57-.9-1.04-1.18-1.39-.63-.77-1.03-1.24-1.19-1.42-.61-.65-.98-1.07-1.09-1.26-.07-.13-.14-.19-.2-.19-.05,0-.07.08-.07.25v.98c.01,1.25.05,2.24.11,2.99.07.75.14,1.18.21,1.31s.2.26.39.39c.18.13.38.2.59.2.28,0,.42.05.42.15,0,.08-.08.12-.24.12h-3.05c-.14,0-.22-.04-.22-.12,0-.08.07-.13.21-.13.52,0,.87-.12,1.04-.35.17-.23.26-.72.26-1.47l-.05-2.23c0-1.32-.03-2.09-.11-2.33-.07-.24-.23-.52-.49-.86-.25-.34-.54-.53-.86-.57-.14-.02-.22-.05-.22-.11,0-.08.09-.12.28-.12h1.87Z"/>
    <path class="cls-1" d="M68.06,91.5l1.31-.03c1.65,0,2.91.4,3.75,1.21.85.8,1.27,1.82,1.27,3.04,0,.87-.2,1.62-.61,2.26-.41.64-.91,1.12-1.52,1.45s-1.42.49-2.44.49c-.23,0-.52-.01-.87-.04-.63-.05-.98-.08-1.05-.08-1.39,0-2.21.02-2.45.04-.14,0-.21-.04-.21-.11,0-.05.03-.08.08-.1s.21-.04.47-.07c.34-.05.58-.18.71-.41s.22-.92.26-2.1l.1-3.36c0-.39-.03-.77-.08-1.13s-.14-.59-.25-.7c-.11-.1-.29-.17-.54-.21-.18-.03-.27-.07-.27-.15,0-.09.04-.13.13-.13s.34.02.78.05.91.05,1.42.05ZM67.83,97.63c0,.56.04.96.11,1.2s.23.44.48.59.63.23,1.17.23c.77,0,1.39-.18,1.87-.55.48-.36.85-.85,1.12-1.45.27-.6.4-1.25.4-1.93,0-1.01-.31-1.92-.92-2.74s-1.57-1.23-2.86-1.23c-.58,0-.91.02-1.01.06-.09.04-.14.15-.14.34,0,.16-.01.46-.04.88-.04.62-.07,1.1-.08,1.45l-.06,1.75c-.03.82-.04,1.29-.04,1.4Z"/>
    <path class="cls-1" d="M85.66,99.84c-.21,0-.33.01-.36.01-.16,0-.44,0-.85-.02s-1.26-.02-2.56-.02h-1.61c-.06,0-.28.01-.65.03-.37.02-.6.03-.68.03-.32,0-.48-.04-.48-.13,0-.07.06-.1.19-.11.41-.03.7-.11.86-.26.16-.15.27-.37.33-.65s.09-1.04.09-2.28v-2.27c0-.74-.03-1.25-.09-1.54s-.2-.52-.41-.67c-.21-.15-.44-.24-.7-.26-.14-.01-.2-.06-.2-.14s.06-.12.18-.12c.03,0,.08,0,.16,0,.67.04,1.46.06,2.36.06l1.12-.02c.12,0,.17.04.17.13,0,.08-.06.12-.18.12-.3,0-.55.06-.75.18-.2.12-.33.25-.4.41s-.1.46-.1.9l-.05,3v1.68c.01.52.04.86.08,1.02.04.16.14.3.28.42s.39.19.76.19c.03,0,.41-.01,1.14-.04.58-.08,1.1-.36,1.56-.85.46-.49.77-.92.92-1.31.05-.11.1-.16.17-.16.07,0,.11.05.11.15,0,.12-.06.54-.18,1.27-.12.73-.2,1.15-.22,1.25Z"/>
    <path class="cls-1" d="M90.37,91.33h.29c.47.97,1.12,2.63,1.96,4.97.54,1.5.9,2.42,1.1,2.76.2.34.52.53.96.57.14.01.21.06.21.14,0,.06-.04.09-.11.09h-.09c-.39-.04-.88-.06-1.49-.06-.92,0-1.51.01-1.78.04-.13,0-.2-.04-.2-.12,0-.05.05-.09.15-.1.36-.03.61-.09.75-.18s.21-.23.21-.42-.13-.64-.39-1.36l-.37-1.09c-.22,0-1.2.01-2.95.04-.44,1.17-.66,1.91-.66,2.22,0,.26.11.45.33.58.22.12.43.19.64.21.16.01.23.06.23.14,0,.03-.03.06-.08.09-.68-.03-1.08-.04-1.22-.04-.71,0-1.19,0-1.43.03-.14,0-.2-.04-.2-.11,0-.07.06-.11.18-.13.49-.06.86-.39,1.12-.99s.66-1.67,1.21-3.22c.5-1.41,1.05-2.76,1.64-4.05ZM90.11,92.72c-.39.8-.85,1.97-1.38,3.5.44-.02.75-.03.94-.03l1.78.03c-.16-.44-.38-1.02-.66-1.75-.35-.87-.57-1.45-.68-1.75Z"/>
    <path class="cls-1" d="M97.45,91.54c.25.34.69.87,1.32,1.59l2.03,2.36,1.96,2.26c.04-.77.06-1.76.06-2.98,0-.92-.02-1.53-.06-1.84-.04-.31-.18-.57-.42-.78s-.55-.32-.91-.32c-.17,0-.25-.04-.25-.11,0-.04.02-.07.05-.09.04-.02.32-.04.85-.06.53-.02.98-.03,1.35-.03h.86s.14,0,.14,0c.13,0,.2.04.2.11,0,.07-.06.1-.17.12-.43.05-.74.16-.92.33s-.3.43-.34.76-.05,1.44-.05,3.33l-.06,3.35c0,.17-.04.25-.12.25-.02,0-.05,0-.09-.03-.04-.02-.23-.23-.57-.64s-.76-.9-1.27-1.47c-.5-.57-.9-1.04-1.18-1.39-.63-.77-1.03-1.24-1.19-1.42-.61-.65-.98-1.07-1.09-1.26-.07-.13-.14-.19-.2-.19-.05,0-.07.08-.07.25v.98c.01,1.25.05,2.24.11,2.99.07.75.14,1.18.21,1.31s.2.26.39.39c.18.13.38.2.59.2.28,0,.42.05.42.15,0,.08-.08.12-.24.12h-3.05c-.14,0-.22-.04-.22-.12,0-.08.07-.13.21-.13.52,0,.87-.12,1.04-.35.17-.23.26-.72.26-1.47l-.05-2.23c0-1.32-.03-2.09-.11-2.33-.07-.24-.23-.52-.49-.86-.25-.34-.54-.53-.86-.57-.14-.02-.22-.05-.22-.11,0-.08.09-.12.28-.12h1.87Z"/>
    <path class="cls-1" d="M107.87,91.5l1.31-.03c1.65,0,2.91.4,3.75,1.21.85.8,1.27,1.82,1.27,3.04,0,.87-.2,1.62-.61,2.26-.41.64-.91,1.12-1.52,1.45s-1.42.49-2.44.49c-.23,0-.52-.01-.87-.04-.63-.05-.98-.08-1.05-.08-1.39,0-2.21.02-2.45.04-.14,0-.21-.04-.21-.11,0-.05.03-.08.08-.1s.21-.04.47-.07c.34-.05.58-.18.71-.41s.22-.92.26-2.1l.1-3.36c0-.39-.03-.77-.08-1.13s-.14-.59-.25-.7c-.11-.1-.29-.17-.54-.21-.18-.03-.27-.07-.27-.15,0-.09.04-.13.13-.13s.34.02.78.05.91.05,1.42.05ZM107.65,97.63c0,.56.04.96.11,1.2s.23.44.48.59.63.23,1.17.23c.77,0,1.39-.18,1.87-.55.48-.36.85-.85,1.12-1.45.27-.6.4-1.25.4-1.93,0-1.01-.31-1.92-.92-2.74s-1.57-1.23-2.86-1.23c-.58,0-.91.02-1.01.06-.09.04-.14.15-.14.34,0,.16-.01.46-.04.88-.04.62-.07,1.1-.08,1.45l-.06,1.75c-.03.82-.04,1.29-.04,1.4Z"/>
    <path class="cls-1" d="M119.81,91.95c.11-.11.19-.23.23-.36.03-.1.08-.15.15-.15.03,0,.07.02.11.06.03.15.07.46.13.92l.15,1.19c0,.08-.05.12-.14.12-.05,0-.09-.04-.13-.13-.22-.55-.56-1.02-1-1.38-.44-.36-.92-.54-1.44-.54s-.9.15-1.16.46c-.26.31-.39.64-.39.98,0,.42.14.75.43.97s.87.48,1.75.76c.65.2,1.14.4,1.46.59.32.19.6.46.82.8.22.34.33.71.33,1.1,0,.67-.28,1.27-.83,1.8s-1.23.79-2.04.79c-.72,0-1.45-.23-2.18-.68-.14.12-.24.26-.28.42-.03.14-.09.2-.17.2-.07,0-.12-.09-.15-.26-.03-.17-.09-1-.18-2.46.02-.05.06-.08.13-.08.06,0,.11.05.15.14.65,1.64,1.56,2.46,2.73,2.46.58,0,1.03-.17,1.36-.52.33-.35.49-.75.49-1.2,0-.31-.09-.6-.26-.86s-.41-.47-.7-.63-.75-.34-1.37-.54c-.8-.26-1.35-.5-1.64-.73s-.5-.49-.64-.78c-.13-.29-.2-.57-.2-.84,0-.56.26-1.06.77-1.5s1.13-.65,1.88-.65c.28,0,.57.04.88.13s.63.22.96.41Z"/>
    <path class="cls-1" d="M128.6,92.02c.23-.21.37-.35.4-.42.04-.1.1-.15.18-.15.08,0,.13.08.14.23l.14,2.21c0,.13,0,.21-.02.23s-.04.04-.09.04c-.07,0-.14-.09-.21-.27-.28-.67-.67-1.23-1.17-1.66-.5-.43-1.05-.64-1.64-.64-.52,0-.99.17-1.42.5s-.77.81-1.01,1.42c-.24.62-.36,1.28-.36,1.98,0,1.2.33,2.18.99,2.93.66.75,1.4,1.13,2.22,1.13.55,0,1.06-.17,1.53-.53s.82-.76,1.05-1.22c.06-.13.13-.19.2-.19.09,0,.14.05.14.15,0,.12-.16.39-.48.81-.32.41-.74.75-1.27,1.01-.52.26-1.08.39-1.69.39-.71,0-1.38-.18-2.02-.54s-1.14-.86-1.51-1.49c-.37-.63-.56-1.38-.56-2.23s.18-1.59.54-2.27.87-1.2,1.53-1.57c.66-.37,1.33-.56,2.03-.56.37,0,.75.06,1.14.17s.79.29,1.19.53Z"/>
    <path class="cls-1" d="M134.11,91.33h.29c.47.97,1.12,2.63,1.96,4.97.54,1.5.9,2.42,1.1,2.76.2.34.52.53.96.57.14.01.21.06.21.14,0,.06-.04.09-.11.09h-.09c-.39-.04-.88-.06-1.49-.06-.92,0-1.51.01-1.78.04-.13,0-.2-.04-.2-.12,0-.05.05-.09.15-.1.36-.03.61-.09.75-.18s.21-.23.21-.42-.13-.64-.39-1.36l-.37-1.09c-.22,0-1.2.01-2.95.04-.44,1.17-.66,1.91-.66,2.22,0,.26.11.45.33.58.22.12.43.19.64.21.16.01.23.06.23.14,0,.03-.03.06-.08.09-.68-.03-1.08-.04-1.22-.04-.71,0-1.19,0-1.43.03-.14,0-.2-.04-.2-.11,0-.07.06-.11.18-.13.49-.06.86-.39,1.12-.99s.66-1.67,1.21-3.22c.5-1.41,1.05-2.76,1.64-4.05ZM133.85,92.72c-.39.8-.85,1.97-1.38,3.5.44-.02.75-.03.94-.03l1.78.03c-.16-.44-.38-1.02-.66-1.75-.35-.87-.57-1.45-.68-1.75Z"/>
    <path class="cls-1" d="M141.69,95.79c0,.19-.01.48-.04.86-.01.19-.02.37-.02.57,0,.14,0,.45.02.93.01.48.04.77.09.89.04.12.14.23.29.34s.31.17.49.18c.19.01.29.06.29.13,0,.06-.03.09-.09.11s-.28.02-.67.02h-1.75c-.49,0-.75-.01-.78-.03-.03-.01-.05-.04-.05-.09,0-.07.08-.12.24-.15.28-.06.48-.16.59-.3.11-.14.18-.43.21-.87s.04-.96.04-1.54l-.02-1.69.02-1.83c0-.65-.04-1.06-.13-1.24-.09-.18-.26-.29-.52-.34-.28-.05-.42-.11-.42-.18s.06-.11.19-.11h1.26s2.02,0,2.02,0c1.33,0,2.22.21,2.68.62s.69.93.69,1.55c0,.74-.3,1.3-.9,1.67-.6.37-1.5.56-2.71.56-.29,0-.63-.01-1.02-.04ZM141.69,95.53c.62.02.98.03,1.06.03.43,0,.84-.07,1.22-.22.38-.15.66-.41.83-.8.18-.38.26-.76.26-1.14,0-.48-.16-.88-.49-1.21-.32-.33-.91-.5-1.75-.5-.44,0-.82.05-1.14.14,0,.15,0,.25,0,.29l.03,1.46-.03,1.55c0,.08,0,.21,0,.41Z"/>
    <path class="cls-1" d="M154.11,91.57c.12.47.24,1.14.36,1.99-.02.03-.04.05-.07.05-.03,0-.06-.02-.09-.05-.29-.47-.57-.83-.84-1.07s-.53-.42-.8-.52c-.27-.1-.73-.16-1.39-.16-.62,0-1.11.04-1.47.11-.03.04-.05.12-.05.23,0,.03,0,.08-.01.16-.04.34-.06,1.25-.06,2.75,0,.06,0,.15.01.27.32.01.54.02.66.02.53,0,.92-.08,1.16-.24s.45-.5.63-1.03c.03-.09.07-.13.13-.13.08,0,.12.06.12.18l-.03.25c-.03.33-.05.68-.05,1.04,0,.58,0,1.1.03,1.56,0,.14-.04.22-.12.22-.06,0-.1-.05-.12-.15-.09-.5-.28-.86-.56-1.08-.29-.22-.9-.33-1.85-.33-.01.31-.02.81-.02,1.5,0,.89.03,1.46.1,1.7.06.24.22.43.46.57s.65.21,1.23.21c1.65,0,2.71-.57,3.19-1.7.06-.14.12-.21.18-.21s.1.05.1.14c0,.05-.01.11-.03.17-.03.08-.09.38-.18.9-.02.11-.1.44-.24.99h-2.66c-.38,0-.94-.02-1.68-.05-.74-.03-1.39-.05-1.96-.05s-.87-.01-.89-.04-.04-.04-.04-.07c0-.08.07-.13.21-.13.47,0,.78-.12.93-.38.15-.25.22-.86.22-1.82v-1.3s.01-1.22.01-1.22c0-.25-.01-.71-.04-1.39-.03-.68-.05-1.07-.08-1.17s-.09-.19-.2-.29c-.11-.1-.35-.19-.71-.29-.11-.03-.17-.08-.17-.14,0-.08.07-.11.22-.11l1.29.07c.46.02,1.58.03,3.37.03,1.18,0,1.78,0,1.8,0Z"/>
  </g>
</svg>